<?xml version="1.0" encoding="utf-8"?>
<svg xmlns="http://www.w3.org/2000/svg" viewBox="0 0 24 24" width="96" height="96">
  <path fill-opacity=".3" d="M18,5v6.48l-3.81,1.69C13.47,13.49,13,14.21,13,15v1H3c-0.55,0-1-0.45-1-1V5c0-0.55,0.45-1,1-1 h14C17.55,4,18,4.45,18,5z" fill="#FFFFFF" />
  <path d="M13,1H7C6.448,1,6,1.448,6,2v2h8V2C14,1.448,13.552,1,13,1L13,1z" fill="#FFFFFF" />
  <path d="M11,7H9v2H7v2h2v2h2v-2h2V9h-2V7L11,7z" fill="#FFFFFF" />
  <path d="M17,3H3C1.9,3,1,3.9,1,5v10c0,1.1,0.9,2,2,2h10v-2H3V5h14v6.92l1.69-0.75c0.1-0.04,0.2-0.08,0.31-0.1V5C19,3.9,18.1,3,17,3 z" fill="#FFFFFF" />
  <path fill-opacity=".3" d="M19.5,22.969C18.393,22.627,16,21.067,16,18v-2.351l3.5-1.555l3.5,1.555V18 C23,21.067,20.607,22.627,19.5,22.969z" fill="#FFFFFF" />
  <path d="M19.5,24.016l-0.295-0.092C17.515,23.402,15,21.395,15,18v-2.999l4.5-2.002l4.5,2.002V18c0,3.395-2.515,5.402-4.205,5.924 L19.5,24.016z M17,16.3V18c0,2.279,1.625,3.495,2.5,3.897C20.375,21.495,22,20.279,22,18v-1.7l-2.5-1.111L17,16.3z" fill="#FFFFFF" />
</svg>