<?xml version="1.0" encoding="utf-8"?>
<svg xmlns="http://www.w3.org/2000/svg" baseProfile="basic" viewBox="0 0 100 100" width="500" height="500">
  <circle cx="50.125" cy="49.958" r="37" fill="#f9dbd2" />
  <circle cx="13.125" cy="28.958" r="2" fill="#ee3e54" />
  <circle cx="77.125" cy="12.958" r="1" fill="#f1bc19" />
  <circle cx="83.125" cy="14.958" r="4" fill="#f1bc19" />
  <circle cx="87.125" cy="23.958" r="2" fill="#ee3e54" />
  <circle cx="81.125" cy="75.958" r="2" fill="#fbcd59" />
  <circle cx="15.125" cy="65.958" r="4" fill="#fbcd59" />
  <circle cx="25.125" cy="86.958" r="2" fill="#ee3e54" />
  <circle cx="82.125" cy="37.958" r="1" fill="#fff" />
  <circle cx="26.125" cy="73.958" r="1" fill="#f1bc19" />
  <path fill="#6ee7ea" d="M62.473,75H37.527C35.579,75,34,73.383,34,71.387V44.286c0-1.94,0.532-3.841,1.536-5.487 C37.54,35.514,40,34.652,40,30.986V29h20v1.986c0,3.678,2.518,4.623,4.464,7.813C65.468,40.445,66,42.346,66,44.286v27.101 C66,73.383,64.421,75,62.473,75z" />
  <rect width="30" height="22" x="35" y="43" fill="#e23855" />
  <path fill="#472b29" d="M58.6,30.4v0.586c0,2.953,1.396,4.533,2.746,6.061c0.651,0.736,1.323,1.498,1.923,2.481 c0.871,1.427,1.331,3.072,1.331,4.757v27.101c0,1.22-0.954,2.213-2.127,2.213H37.527c-1.173,0-2.127-0.993-2.127-2.213V44.286 c0-1.685,0.46-3.33,1.331-4.757c0.627-1.027,1.309-1.801,1.969-2.549c1.327-1.505,2.699-3.061,2.699-5.993V30.4H58.6 M60,29H40 v1.986c0,3.666-2.46,4.528-4.464,7.813C34.532,40.445,34,42.346,34,44.286v27.101C34,73.383,35.579,75,37.527,75h24.947 C64.421,75,66,73.383,66,71.387V44.286c0-1.94-0.532-3.841-1.536-5.487C62.518,35.61,60,34.664,60,30.986V29L60,29z" />
  <path fill="#f1bc19" d="M38.651,30.3l0.049-4.917c0-0.928,0.755-1.683,1.683-1.683h19.234c0.928,0,1.683,0.755,1.683,1.683 V30.3H38.651z" />
  <path fill="#472b29" d="M59.617,24.4c0.542,0,0.983,0.441,0.983,0.983V29.6H39.4v-4.217c0-0.542,0.441-0.983,0.983-0.983 H59.617 M59.617,23H40.383C39.067,23,38,24.067,38,25.383v4.965C38,30.708,38.292,31,38.652,31h22.697 C61.708,31,62,30.708,62,30.348v-4.965C62,24.067,60.933,23,59.617,23L59.617,23z" />
  <path fill="#472b29" d="M42.5,30.5c-0.276,0-0.5-0.224-0.5-0.5v-3c0-0.276,0.224-0.5,0.5-0.5S43,26.724,43,27v3 C43,30.276,42.776,30.5,42.5,30.5z" />
  <path fill="#472b29" d="M47.5,30.5c-0.276,0-0.5-0.224-0.5-0.5v-3c0-0.276,0.224-0.5,0.5-0.5S48,26.724,48,27v3 C48,30.276,47.776,30.5,47.5,30.5z" />
  <path fill="#472b29" d="M52.5,30.5c-0.276,0-0.5-0.224-0.5-0.5v-3c0-0.276,0.224-0.5,0.5-0.5S53,26.724,53,27v3 C53,30.276,52.776,30.5,52.5,30.5z" />
  <path fill="#472b29" d="M57.5,30.5c-0.276,0-0.5-0.224-0.5-0.5v-3c0-0.276,0.224-0.5,0.5-0.5S58,26.724,58,27v3 C58,30.276,57.776,30.5,57.5,30.5z" />
  <circle cx="50" cy="54" r="8" fill="#fdfcef" />
  <path fill="#472b29" d="M45.895,47.383c-0.085,0-0.168-0.043-0.215-0.121c-0.07-0.119-0.032-0.272,0.086-0.344 c1.275-0.764,2.739-1.168,4.234-1.168c0.138,0,0.25,0.112,0.25,0.25s-0.112,0.25-0.25,0.25c-1.404,0-2.78,0.38-3.977,1.098 C45.982,47.371,45.938,47.383,45.895,47.383z" />
  <path fill="#472b29" d="M50,62.25c-4.549,0-8.25-3.701-8.25-8.25c0-2.143,0.817-4.173,2.302-5.717 c0.098-0.101,0.256-0.101,0.354-0.008c0.1,0.096,0.104,0.254,0.008,0.354C43.018,50.08,42.25,51.987,42.25,54 c0,4.273,3.477,7.75,7.75,7.75c1.846,0,3.634-0.66,5.035-1.858c0.104-0.089,0.263-0.078,0.353,0.028 c0.089,0.104,0.077,0.263-0.028,0.353C53.868,61.548,51.965,62.25,50,62.25z" />
  <path fill="#472b29" d="M56.63,58.729c-0.049,0-0.098-0.014-0.14-0.043c-0.115-0.077-0.145-0.232-0.067-0.347 c0.868-1.283,1.327-2.784,1.327-4.34c0-3.463-2.325-6.531-5.655-7.463c-0.133-0.038-0.211-0.176-0.174-0.309 c0.037-0.134,0.178-0.208,0.309-0.174c3.545,0.992,6.021,4.26,6.021,7.945c0,1.656-0.488,3.254-1.413,4.619 C56.789,58.691,56.71,58.729,56.63,58.729z" />
  <g>
    <polygon fill="#e23855" points="56,52 52,52 52,48 48,48 48,52 44,52 44,56 48,56 48,60 52,60 52,56 56,56" />
  </g>
  <g>
    <path fill="#472b29" d="M56,56.25h-2.181c-0.138,0-0.25-0.112-0.25-0.25s0.112-0.25,0.25-0.25h1.931v-3.5H52 c-0.138,0-0.25-0.112-0.25-0.25v-3.75h-3.5v1.128c0,0.138-0.112,0.25-0.25,0.25s-0.25-0.112-0.25-0.25V48 c0-0.138,0.112-0.25,0.25-0.25h4c0.138,0,0.25,0.112,0.25,0.25v3.75H56c0.138,0,0.25,0.112,0.25,0.25v4 C56.25,56.138,56.138,56.25,56,56.25z" />
  </g>
  <g>
    <path fill="#472b29" d="M52,60.25h-4c-0.138,0-0.25-0.112-0.25-0.25v-3.75H44c-0.138,0-0.25-0.112-0.25-0.25v-4 c0-0.138,0.112-0.25,0.25-0.25h3.75v-0.745c0-0.138,0.112-0.25,0.25-0.25s0.25,0.112,0.25,0.25V52c0,0.138-0.112,0.25-0.25,0.25 h-3.75v3.5H48c0.138,0,0.25,0.112,0.25,0.25v3.75h3.5V56c0-0.138,0.112-0.25,0.25-0.25s0.25,0.112,0.25,0.25v4 C52.25,60.138,52.138,60.25,52,60.25z" />
  </g>
  <g>
    <path fill="#472b29" d="M41,44h-6c-0.276,0-0.5-0.224-0.5-0.5S34.724,43,35,43h6c0.276,0,0.5,0.224,0.5,0.5S41.276,44,41,44 z" />
  </g>
  <g>
    <path fill="#472b29" d="M47,44h-3.5c-0.276,0-0.5-0.224-0.5-0.5s0.224-0.5,0.5-0.5H47c0.276,0,0.5,0.224,0.5,0.5 S47.276,44,47,44z" />
  </g>
  <g>
    <path fill="#472b29" d="M40,65h-5c-0.276,0-0.5-0.224-0.5-0.5S34.724,64,35,64h5c0.276,0,0.5,0.224,0.5,0.5S40.276,65,40,65 z" />
  </g>
  <g>
    <path fill="#472b29" d="M65,65H42.5c-0.276,0-0.5-0.224-0.5-0.5s0.224-0.5,0.5-0.5H65c0.276,0,0.5,0.224,0.5,0.5 S65.276,65,65,65z" />
  </g>
  <g>
    <path fill="#472b29" d="M65,44H49.5c-0.276,0-0.5-0.224-0.5-0.5s0.224-0.5,0.5-0.5H65c0.276,0,0.5,0.224,0.5,0.5 S65.276,44,65,44z" />
  </g>
  <g>
    <path fill="#472b29" d="M55.5,72H44.426c-0.276,0-0.5-0.224-0.5-0.5s0.224-0.5,0.5-0.5H55.5c0.276,0,0.5,0.224,0.5,0.5 S55.776,72,55.5,72z" />
  </g>
  <g>
    <path fill="#472b29" d="M62.106,72H57.5c-0.276,0-0.5-0.224-0.5-0.5s0.224-0.5,0.5-0.5h4.606c0.276,0,0.5,0.224,0.5,0.5 S62.383,72,62.106,72z" />
  </g>
</svg>